<svg t="1630145429286" class="icon" viewBox="0 0 1024 1024" version="1.1" xmlns="http://www.w3.org/2000/svg" p-id="1313" width="200" height="200"><path d="M590.7 519.2m-109.2 0a109.2 109.2 0 1 0 218.4 0 109.2 109.2 0 1 0-218.4 0Z" fill="#FEEED9" p-id="1314"></path><path d="M735.9 363.1c0.7 0.3 1.4 0.6 2.1 1-0.7-0.4-1.4-0.7-2.1-1zM753.4 635.3v3.4c0-0.6 0.1-1.1 0.1-1.7 0-0.5 0-1.1-0.1-1.7z m0 0v3.4c0-0.6 0.1-1.1 0.1-1.7 0-0.5 0-1.1-0.1-1.7z m0 0v3.4c0-0.6 0.1-1.1 0.1-1.7 0-0.5 0-1.1-0.1-1.7zM267.1 659.6c1.3 0.8 2.7 1.5 4.1 2-1.4-0.6-2.8-1.3-4.1-2z m0 0c1.3 0.8 2.7 1.5 4.1 2-1.4-0.6-2.8-1.3-4.1-2z m0 0c1.3 0.8 2.7 1.5 4.1 2-1.4-0.6-2.8-1.3-4.1-2z" fill="#BBBBBC" p-id="1315"></path><path d="M767.1 343.2c-0.9-0.7-1.9-1.3-2.9-1.8-72.6-35.8-164.2-60.5-258.1-60.5-99.3 0-195 26.8-269.5 66.3-0.5 0.3-0.9 0.5-1.4 0.8-5.6 3.8-12.2 12.4-12.2 24.1v281.7c0 14.1 9.8 26.4 23.2 29.7 71.9 37.4 159.3 56.4 259.8 56.4 101.7 0 186.7-18.8 259.9-57.5 11.9-4.5 19.7-15.8 19.7-28.6V372.2c0.1-11.6-10-22.1-18.5-29z m-12.6 295.6c-0.6 9.6-6.5 17.8-15 22.2-0.5 0.2-0.9 0.5-1.4 0.7-5.7 2.8-11.4 5.4-17.3 7.9-61.6 26.4-132.2 39.2-214.6 39.2-85.8 0-161.2-14.4-224.5-42.8-3.2-1.4-6.3-2.9-9.4-4.4-1.5-0.6-2.8-1.2-4.1-2-8.3-4.8-13.8-13.4-13.8-23.2V389.7c0-10.8 6.7-20.2 16.5-24.6 4.3-2 8.7-4 13.2-5.8 64.5-27.3 141.9-42.1 222.1-42.1 81.3 0 160.6 15.4 225.8 43.7l4.8 2.1c0.1 0 0.2 0.1 0.3 0.1 0.7 0.3 1.4 0.6 2.1 1 0.1 0 0.1 0.1 0.2 0.1 9.1 4.6 15.2 13.6 15.2 24v247.2c0 0.6 0.1 1.1 0.1 1.7-0.2 0.5-0.2 1.1-0.2 1.7z" fill="#00AB95" p-id="1316"></path><path d="M788 654.4c-8.6 0-15.6-7-15.6-15.6s7-15.6 15.6-15.6c41.4 0 80.7-76 100-193.6v-0.2c8.1-45.4 3.8-79.7-12.6-99.3-11.9-14.2-30.4-21.4-54.9-21.4-25 0-51.6 17.4-71.3 46.7-4.8 7.2-14.5 9.1-21.7 4.3-7.2-4.8-9.1-14.5-4.3-21.7 25.5-37.9 61.8-60.5 97.2-60.5 33.8 0 61.1 11.3 78.9 32.6 22.8 27.3 29.3 69.2 19.4 124.8-10.1 61.5-25.7 113.8-45.2 151.1-23.8 45.4-52.5 68.4-85.5 68.4zM220.9 654.4c-33 0-61.8-23-85.5-68.4-19.5-37.3-35.2-89.6-45.3-151.2-9.9-55.5-3.4-97.5 19.4-124.8 17.9-21.3 45.2-32.6 78.9-32.6 35.4 0 71.8 22.6 97.2 60.5 4.8 7.2 2.9 16.9-4.3 21.7-7.2 4.8-16.9 2.9-21.7-4.3-19.6-29.2-46.3-46.7-71.3-46.7-24.6 0-43 7.2-54.9 21.4-16.4 19.6-20.7 53.9-12.6 99.3v0.2c19.3 117.6 58.6 193.6 100 193.6 8.6 0 15.6 7 15.6 15.6s-6.9 15.7-15.5 15.7z" fill="#00AB95" p-id="1317"></path><path d="M416.4 595.5c-1.3 0-2.6-0.2-3.9-0.5-34-9.4-57.7-40.5-57.7-75.8 0-43.3 35.3-78.6 78.6-78.6 16.7 0 32.7 5.2 46.2 15 6.5 4.7 7.9 13.8 3.2 20.3s-13.8 7.9-20.3 3.2c-8.5-6.2-18.5-9.4-29.1-9.4-27.3 0-49.5 22.2-49.5 49.5 0 22.2 14.9 41.8 36.3 47.7 7.8 2.1 12.3 10.2 10.2 17.9-1.8 6.4-7.6 10.7-14 10.7zM572.9 597.8c-16.8 0-32.7-5.2-46.3-15-6.5-4.7-7.9-13.8-3.2-20.3s13.8-7.9 20.3-3.2c8.5 6.2 18.6 9.5 29.1 9.5 27.3 0 49.5-22.2 49.5-49.5 0-26.8-20.9-48.5-47.7-49.5-8-0.3-14.3-7-14-15.1 0.3-8 7-14.3 15.1-14 42.5 1.5 75.8 36 75.8 78.6 0 43.2-35.3 78.5-78.6 78.5z" fill="#00AB95" p-id="1318"></path><path d="M566.3 527.9c-2.7 0-5.4-0.7-7.9-2.3-6.8-4.4-8.7-13.4-4.4-20.1 6.3-9.7 9.6-21 9.6-32.7 0-33.4-27.2-60.5-60.5-60.5-26.3 0-49.4 16.8-57.6 41.8-2.5 7.6-10.7 11.8-18.3 9.3-7.6-2.5-11.8-10.7-9.3-18.3 12-37 46.3-61.9 85.3-61.9 49.4 0 89.6 40.2 89.6 89.6 0 17.2-4.9 34-14.2 48.4-2.8 4.3-7.5 6.7-12.3 6.7zM354.4 630.3c-2.7 0-5.4-0.8-7.7-2.2-7.8-4.9-12.4-12.4-12.9-21-1-19.2 19.6-39.6 37.1-53.3 6.3-5 15.5-3.8 20.4 2.5 5 6.3 3.8 15.5-2.5 20.4-8.8 6.9-15.4 13.4-19.7 18.6 7.6-2.5 16.5-5.4 25.4-8-1-3.1-1.1-6.6 0.2-9.9 2.9-7.5 11.4-16.2 18.8-13.3 2.7 1 8.8 3.6 14.3 6.1 12.5 5.5 16.3 7.2 18.4 14 1.3 4.2 0.6 13.9-1.9 17.6-2.5 3.7-6.5 6-10.9 6.3-13.6 1.1-52.8 13.7-74.4 21.5-1.2 0.5-2.9 0.7-4.6 0.7zM654.4 634.6c-1.9 0-3.9-0.4-5.7-1.2-20.2-8.6-75-31.9-86.4-35.6-7.7-2.5-11.9-10.7-9.4-18.3 2.5-7.7 10.7-11.9 18.3-9.4 9.9 3.2 43.1 17.1 66.2 26.8-4.2-4.7-10-10.2-17.5-16-6.3-5-7.4-14.1-2.5-20.4 5-6.3 14.1-7.4 20.4-2.5 17.5 13.7 38.1 34.1 37.1 53.3-0.5 8.6-5 16.1-12.9 21-2.2 1.6-4.9 2.3-7.6 2.3z m-8.5-24.6z" fill="#00AB95" p-id="1319"></path></svg>